<svg version="1" xmlns="http://www.w3.org/2000/svg" width="933.333" height="933.333" viewBox="0 0 700.000000 700.000000"><path d="M323.3 44.3c-4.8 1-9.6 4.7-11.7 9.2-1.6 3.3-1.7 13-1.7 133 0 119.1.2 129.8 1.7 132.7.9 1.8 2.6 4.1 3.8 5.2 4.8 4.3 7.3 4.6 34.8 4.6 23.5 0 26.7-.2 30.4-1.9 4.3-2 7.5-5.6 9.1-10.6.5-1.9.9-52.2.8-131.5-.1-116.1-.2-128.8-1.7-131.5-2.1-3.9-5.5-7.1-9.3-8.6-3.5-1.3-50.1-1.9-56.2-.6z"/><path d="M525.7 153.2c-6 1.3-7.9 3.1-19.3 18.1-6 7.8-11.2 14.6-11.6 15.2-15.2 19.3-15.2 24.5-.1 40.1 34.1 35.4 52.8 74.6 58.2 122.6.9 7.3.7 39.1-.2 43.8-.3 1.4-.8 4.6-1.1 7.1-6.3 45.8-30.4 90.6-65.7 122.3-29.8 26.7-72.9 46.1-111.5 50.1-3.8.4-7.8.9-8.9 1.2-2.7.5-28.9.4-34.4-.2-9.5-1-13.7-1.6-15.1-2-.8-.2-3.4-.7-5.7-1-14.6-2-40.2-11-56.3-19.7-35.1-19-67.8-52.3-85.9-87.4-9.7-19-17-40.9-19.7-59.4-.3-2.5-1-7-1.4-10-.9-5.5-.6-46 .3-51.2.3-1.6.8-4.7 1.2-7 1.3-7.7 1.4-8.3 3.9-17.9 8.6-34 28.4-67.5 54.5-92.4 8.6-8.2 11.4-15.6 8.7-23.3-.8-2.3-4.5-8.1-8.2-13-3.7-4.8-10.4-13.4-14.8-19.2-11.9-15.6-13.7-17-22-17-5.4 0-9.3 2.6-20.4 13.4-15.9 15.5-32.2 36.4-46.9 60.1-2.5 4-10.8 20.2-14.6 28.5-7 15.2-15 39.8-18.2 55.5-5 24.6-6.3 39.2-5.9 64.5.2 11.8.5 22.6.8 24 .2 1.4.7 5.2 1.1 8.5.3 3.3.8 6.7 1 7.5.3.8.7 3.3 1 5.5.4 2.2 1 5.6 1.5 7.5.5 1.9 1.2 4.9 1.4 6.6 1.4 7.8 9.9 34.1 14.9 45.9 4.2 9.8 15.4 31.2 21.6 41 5.7 9 17 24.6 23.3 32.1 7.4 8.9 23.7 25.3 32.3 32.5 2.2 1.9 4.7 4 5.5 4.8 6.1 5.9 32.7 23.8 44 29.8 3.6 1.9 7.2 3.8 8 4.3 6.3 3.8 33.7 15 43.8 18 4.9 1.5 18.3 5.1 20.2 5.5.8.2 3.6.8 6.1 1.4 6.6 1.5 22.2 4 30.4 4.9 14.4 1.5 57.2.7 67.5-1.3 1.3-.3 4.2-.7 6.5-1 13.5-2 48.6-11.4 57-15.5 1.1-.5 4.9-2.1 8.5-3.6 7.4-3 23.9-11.1 29.7-14.6 13.2-7.8 19.4-11.9 27.1-17.6 22-16.2 41.5-35 57.5-55.5 27.7-35.4 46.2-75.8 55-119.7 4.2-20.9 5.2-31.4 5.2-56 0-17.4-.7-31.7-1.9-37.5-.2-1.1-.7-4.3-1-7-1-7.4-4.3-21.6-7.7-33.4-9.3-32.3-26.8-66.9-47.7-94.6-9.2-12.1-12.6-15.9-26.2-29.6-14.3-14.4-17.7-16.4-25.3-14.7z"/></svg>